Diljit Dosanjh Mind Na Kari


 Format                                   : MPEG-4
Format profile                           : Base Media / Version 2
Codec ID                                 : mp42
File size                                : 34.6 MiB
Duration                                 : 1mn 58s
Overall bit rate mode                    : Variable
Overall bit rate                         : 2 454 Kbps

Video
ID                                       : 1
Format                                   : AVC
Format/Info                              : Advanced Video Codec
Format profile                           : High@L3.1
Format settings, CABAC                   : Yes
Format settings, ReFrames                : 1 frame
Codec ID                                 : avc1
Codec ID/Info                            : Advanced Video Coding
Duration                                 : 1mn 58s
Bit rate                                 : 2 300 Kbps
Maximum bit rate                         : 4 413 Kbps
Width                                    : 1 280 pixels
Height                                   : 720 pixels
Display aspect ratio                     : 16:9
Frame rate mode                          : Constant
Frame rate                               : 24.000 fps
Color space                              : YUV
Chroma subsampling                       : 4:2:0
Bit depth                                : 8 bits
Scan type                                : Progressive
Bits/(Pixel*Frame)                       : 0.104
Stream size                              : 32.4 MiB (94%)
Tagged date                              : UTC 2012-06-08 22:26:50

Audio
ID                                       : 2
Format                                   : AAC
Format/Info                              : Advanced Audio Codec
Format profile                           : LC
Codec ID                                 : 40
Duration                                 : 1mn 58s
Bit rate mode                            : Variable
Bit rate                                 : 152 Kbps
Maximum bit rate                         : 177 Kbps
Channel(s)                               : 2 channels
Channel positions                        : Front: L R
Sampling rate                            : 44.1 KHz
Compression mode                         : Lossy
Stream size                              : 2.14 MiB (6%)



____/ /  (_)_____ __  __ ____   ____   __  __<  // __  ( __ ) / ___/
 / __  /  / // ___// / / // __  / __  / / / // // /_/ // __  |/ __  
/ /_/ /  / /(__  )/ /_/ // / / // / / // /_/ // / __, // /_/ // /_/ / 
__,_/__/ //____/ __,_//_/ /_//_/ /_/ __, //_/ /____/ ____/ ____/  
     /___/                            /____/                           




plz seed